<svg aria-hidden="true" class="absolute inset-0 -z-10 h-full w-full fill-neutral-100 stroke-neutral-950/5 [mask-image:linear-gradient(to_bottom_left,white_50%,transparent_60%)]"><rect width="100%" height="100%" fill="url(#a)"/><svg x="50%" y="-256" stroke-width="0" class="overflow-visible"><path d="M109.119 164.5a11.5 11.5 0 0 0-11.277 9.245l-25.6 128c-1.422 7.116 4.02 13.755 11.278 13.755h63.366a11.5 11.5 0 0 0 11.277-9.245l25.6-128c1.423-7.116-4.02-13.755-11.277-13.755zm64 160a11.5 11.5 0 0 0-11.277 9.245l-25.6 128c-1.422 7.116 4.02 13.755 11.278 13.755h63.366a11.5 11.5 0 0 0 11.277-9.245l25.6-128c1.423-7.116-4.02-13.755-11.277-13.755zm160 160a11.5 11.5 0 0 0-11.277 9.245l-25.6 128c-1.422 7.116 4.02 13.755 11.278 13.755h63.366a11.5 11.5 0 0 0 11.277-9.245l25.6-128c1.423-7.116-4.02-13.755-11.277-13.755zm224-160a11.5 11.5 0 0 0-11.277 9.245l-25.6 128c-1.422 7.116 4.02 13.755 11.278 13.755h63.366a11.5 11.5 0 0 0 11.277-9.245l25.6-128c1.423-7.116-4.02-13.755-11.277-13.755zm32 320a11.5 11.5 0 0 0-11.277 9.245l-25.6 128c-1.422 7.116 4.02 13.755 11.278 13.755h63.366a11.5 11.5 0 0 0 11.277-9.245l25.6-128c1.423-7.116-4.02-13.755-11.277-13.755zm-224 160a11.5 11.5 0 0 0-11.277 9.245l-25.6 128c-1.422 7.116 4.02 13.755 11.278 13.755h63.366a11.5 11.5 0 0 0 11.277-9.245l25.6-128c1.423-7.116-4.02-13.755-11.277-13.755z"/></svg><defs><pattern id="a" width="96" height="480" x="50%" fill="none" patternTransform="translate(0 -256)" patternUnits="userSpaceOnUse"><path d="M128 0 98.572 147.138A16 16 0 0 1 82.883 160H13.117a16 16 0 0 0-15.69 12.862l-26.855 134.276A16 16 0 0 1-45.117 320H-116M64-160 34.572-12.862A16 16 0 0 1 18.883 0h-69.766a16 16 0 0 0-15.69 12.862l-26.855 134.276A16 16 0 0 1-109.117 160H-180m372 0-29.428 147.138A16 16 0 0 1 146.883 320H77.117a16 16 0 0 0-15.69 12.862L34.573 467.138A16 16 0 0 1 18.883 480H-52m-84 0h58.883a16 16 0 0 0 15.69-12.862l26.855-134.276A16 16 0 0 1-18.883 320h69.766a16 16 0 0 0 15.69-12.862l26.855-134.276A16 16 0 0 1 109.117 160H192M-72 640h58.883a16 16 0 0 0 15.69-12.862l26.855-134.276A16 16 0 0 1 45.117 480h69.766a16 16 0 0 0 15.689-12.862l26.856-134.276A16 16 0 0 1 173.117 320H256m-456 0h58.883a16 16 0 0 0 15.689-12.862l26.856-134.276A16 16 0 0 1-82.883 160h69.766a16 16 0 0 0 15.69-12.862L29.427 12.862A16 16 0 0 1 45.117 0H128"/></pattern></defs></svg>